<svg id="Layer_2" data-name="Layer 2" xmlns="http://www.w3.org/2000/svg" xmlns:xlink="http://www.w3.org/1999/xlink" viewBox="0 0 1728 1296"><defs><style>.cls-1{isolation:isolate;}.cls-2{fill:#3b5185;}.cls-10,.cls-11,.cls-12,.cls-13,.cls-14,.cls-15,.cls-16,.cls-17,.cls-18,.cls-19,.cls-20,.cls-21,.cls-22,.cls-23,.cls-24,.cls-3,.cls-4,.cls-5,.cls-6,.cls-7,.cls-8,.cls-9{fill:none;stroke-width:15px;}.cls-12,.cls-13,.cls-14,.cls-15,.cls-16,.cls-17,.cls-18,.cls-19,.cls-20,.cls-21,.cls-22,.cls-24,.cls-3,.cls-4,.cls-5,.cls-6,.cls-7,.cls-8,.cls-9{stroke-miterlimit:10;}.cls-3{stroke:url(#linear-gradient);}.cls-4{stroke:url(#linear-gradient-2);}.cls-5{stroke:url(#linear-gradient-3);}.cls-10,.cls-12,.cls-13,.cls-14,.cls-15,.cls-16,.cls-17,.cls-18,.cls-19,.cls-20,.cls-21,.cls-22,.cls-23,.cls-6,.cls-7,.cls-8{stroke-linecap:round;}.cls-6{stroke:url(#linear-gradient-4);}.cls-7{stroke:url(#linear-gradient-5);}.cls-8{stroke:url(#linear-gradient-6);}.cls-9{stroke:url(#linear-gradient-7);}.cls-10,.cls-11,.cls-23{stroke-linejoin:round;}.cls-10{stroke:url(#linear-gradient-8);}.cls-11{stroke:url(#linear-gradient-9);}.cls-12{stroke:url(#linear-gradient-10);}.cls-13{stroke:url(#linear-gradient-11);}.cls-14{stroke:url(#linear-gradient-12);}.cls-15{stroke:url(#linear-gradient-13);}.cls-16{stroke:url(#linear-gradient-14);}.cls-17{stroke:url(#linear-gradient-15);}.cls-18{stroke:url(#linear-gradient-16);}.cls-19{stroke:url(#linear-gradient-17);}.cls-20{stroke:url(#linear-gradient-18);}.cls-21{stroke:url(#linear-gradient-19);}.cls-22{stroke:url(#linear-gradient-20);}.cls-23{stroke:url(#linear-gradient-21);}.cls-24{stroke:url(#linear-gradient-22);}</style><linearGradient id="linear-gradient" x1="764.02" y1="259.88" x2="740.54" y2="219.21" gradientUnits="userSpaceOnUse"><stop offset="0" stop-color="#3b5185"/><stop offset="1" stop-color="#5ba69f"/></linearGradient><linearGradient id="linear-gradient-2" x1="968.65" y1="259.88" x2="945.17" y2="219.21" xlink:href="#linear-gradient"/><linearGradient id="linear-gradient-3" x1="697.98" y1="224.31" x2="679.34" y2="192.02" xlink:href="#linear-gradient"/><linearGradient id="linear-gradient-4" x1="703.14" y1="275.1" x2="674.74" y2="225.9" xlink:href="#linear-gradient"/><linearGradient id="linear-gradient-5" x1="779.25" y1="633.68" x2="743.88" y2="572.43" xlink:href="#linear-gradient"/><linearGradient id="linear-gradient-6" x1="1010.29" y1="664.91" x2="922.93" y2="513.59" xlink:href="#linear-gradient"/><linearGradient id="linear-gradient-7" x1="796.85" y1="510.64" x2="694.57" y2="333.49" xlink:href="#linear-gradient"/><linearGradient id="linear-gradient-8" x1="895.42" y1="563.09" x2="847.9" y2="480.79" xlink:href="#linear-gradient"/><linearGradient id="linear-gradient-9" x1="900.4" y1="272.61" x2="808.36" y2="113.2" xlink:href="#linear-gradient"/><linearGradient id="linear-gradient-10" x1="1018.47" y1="797.22" x2="995.01" y2="756.58" xlink:href="#linear-gradient"/><linearGradient id="linear-gradient-11" x1="1051.45" y1="798.07" x2="1027.01" y2="755.73" xlink:href="#linear-gradient"/><linearGradient id="linear-gradient-12" x1="707.53" y1="801.06" x2="677.53" y2="749.09" xlink:href="#linear-gradient"/><linearGradient id="linear-gradient-13" x1="736.12" y1="801.43" x2="705.69" y2="748.72" xlink:href="#linear-gradient"/><linearGradient id="linear-gradient-14" x1="765.64" y1="439.34" x2="739.74" y2="394.47" xlink:href="#linear-gradient"/><linearGradient id="linear-gradient-15" x1="1011.21" y1="428.14" x2="986.73" y2="385.73" xlink:href="#linear-gradient"/><linearGradient id="linear-gradient-16" x1="1023.64" y1="476.41" x2="960.89" y2="367.72" xlink:href="#linear-gradient"/><linearGradient id="linear-gradient-17" x1="987.72" y1="759.73" x2="794.59" y2="425.23" xlink:href="#linear-gradient"/><linearGradient id="linear-gradient-18" x1="766.99" y1="801.48" x2="736.16" y2="748.07" xlink:href="#linear-gradient"/><linearGradient id="linear-gradient-19" x1="982.47" y1="801.13" x2="958.22" y2="759.12" xlink:href="#linear-gradient"/><linearGradient id="linear-gradient-20" x1="767.61" y1="476.41" x2="704.85" y2="367.72" xlink:href="#linear-gradient"/><linearGradient id="linear-gradient-21" x1="924.97" y1="409.24" x2="778.6" y2="155.72" xlink:href="#linear-gradient"/><linearGradient id="linear-gradient-22" x1="1051.82" y1="510.64" x2="949.55" y2="333.49" xlink:href="#linear-gradient"/></defs><g class="cls-1"><path class="cls-2" d="M255.11,909.51q36.78,0,63.15,14.92a96.74,96.74,0,0,1,39.92,42.42q13.54,27.51,13.55,64.6,0,27.42-7.42,49.84a107.9,107.9,0,0,1-22.26,38.87,97.26,97.26,0,0,1-36.45,25.16Q284,1154,256.08,1154q-27.75,0-49.68-9a98.46,98.46,0,0,1-36.61-25.24q-14.68-16.29-22.18-39.2a158.15,158.15,0,0,1-7.5-49.51q0-27.26,7.82-50t22.66-38.72A98,98,0,0,1,206.72,918Q228,909.51,255.11,909.51Zm68.07,121.62q0-26-8.39-45t-24-28.78q-15.57-9.76-35.73-9.76a64.71,64.71,0,0,0-26.53,5.4,58.3,58.3,0,0,0-21,15.73q-8.79,10.32-13.87,26.37t-5.08,36.05a122,122,0,0,0,5.08,36.45q5.08,16.29,14.35,27a60.4,60.4,0,0,0,21.29,16.05,67.25,67.25,0,0,0,60.17-3.88q15.39-9.18,24.51-28.38T323.18,1031.13Z"/><path class="cls-2" d="M449.63,999.35v5.32q11.61-15.31,25.41-22.5T506.73,975q17.41,0,31.13,7.58A48.16,48.16,0,0,1,558.35,1004a51.08,51.08,0,0,1,5.64,17.42,180.52,180.52,0,0,1,1.29,23.87v81.94q0,13.23-6,20a20.07,20.07,0,0,1-15.72,6.77,20.31,20.31,0,0,1-16-6.93q-6.13-6.93-6.13-19.84v-73.39q0-21.78-6-33.31T491.25,1009a35.74,35.74,0,0,0-21.46,7,40.28,40.28,0,0,0-14.19,19.27q-3.23,9.84-3.23,36.78v55.16q0,13.4-6.21,20.08t-16,6.69a20,20,0,0,1-15.65-6.93q-6.14-6.93-6.13-19.84V1000q0-12.59,5.48-18.79t15-6.21a20.31,20.31,0,0,1,10.48,2.74,19.64,19.64,0,0,1,7.5,8.22A29,29,0,0,1,449.63,999.35Z"/><path class="cls-2" d="M813.68,1075.32q0,11.29-5.57,24.44t-17.5,25.8q-11.94,12.68-30.48,20.57T716.9,1154a150.7,150.7,0,0,1-34-3.55,95.38,95.38,0,0,1-27.83-11,94,94,0,0,1-23-19.76,117.45,117.45,0,0,1-16-24.92,129.8,129.8,0,0,1-9.92-29.44,160,160,0,0,1-3.31-33.23q0-28.54,8.31-51.13A109.17,109.17,0,0,1,635,942.33a103.84,103.84,0,0,1,36.29-24.43,117.56,117.56,0,0,1,44.36-8.39q28.71,0,51.13,11.45t34.35,28.31Q813,966.13,813,981.13a20.76,20.76,0,0,1-5.81,14.51,18.39,18.39,0,0,1-14,6.29q-9.2,0-13.79-4.35t-10.24-15q-9.36-17.58-22-26.29t-31.21-8.71q-29.52,0-47,22.42t-17.5,63.71q0,27.57,7.74,45.89t21.94,27.33q14.19,9,33.23,9,20.64,0,34.92-10.24t21.53-30.09a51.12,51.12,0,0,1,7.58-15.24q4.51-5.88,14.52-5.88a20.33,20.33,0,0,1,14.68,6A19.91,19.91,0,0,1,813.68,1075.32Z"/><path class="cls-2" d="M896.74,936.29v65.32a94.06,94.06,0,0,1,16.37-15.32,58.84,58.84,0,0,1,17.66-8.47A74.13,74.13,0,0,1,951.58,975q16.77,0,29.76,7.09a55.12,55.12,0,0,1,26.7,38.31,140,140,0,0,1,1.61,22.5v84.36q0,13.23-6,20T987.55,1154q-21.78,0-21.77-26.77V1052.9q0-21.12-6.29-32.5T935.61,1009a35.8,35.8,0,0,0-21.21,6.69A40.35,40.35,0,0,0,900.29,1034q-3.56,9.84-3.55,35v58.23q0,13.07-5.88,19.92T874.48,1154q-21.76,0-21.77-26.77v-191q0-13.39,5.73-20.09t16-6.69q10.49,0,16.38,6.77T896.74,936.29Z"/><path class="cls-2" d="M1176.11,1075.32H1090q.16,15,6,26.45t15.65,17.26a41.31,41.31,0,0,0,21.53,5.81,52.67,52.67,0,0,0,14.44-1.86,47,47,0,0,0,12.66-5.8,97.75,97.75,0,0,0,11.29-8.47q5.16-4.51,13.39-12.26,3.38-2.9,9.67-2.9,6.78,0,11,3.71t4.2,10.48q0,6-4.68,14T1191,1137q-9.45,7.34-23.72,12.17t-32.82,4.84q-42.42,0-66-24.19T1045,1064.19a109.54,109.54,0,0,1,5.81-36.21,80,80,0,0,1,16.93-28.63,73.27,73.27,0,0,1,27.43-18.3,98.32,98.32,0,0,1,36.13-6.38q25.8,0,44.27,10.89t27.66,28.15a74,74,0,0,1,9.2,35.16q0,16.62-9.52,21.53T1176.11,1075.32Zm-86.14-25h79.85q-1.62-22.58-12.18-33.79t-27.83-11.21q-16.44,0-27,11.37T1090,1050.32Z"/><path class="cls-2" d="M1407.4,1099.52q0,8.22-4.92,17.58t-15,17.82q-10.08,8.47-25.4,13.63t-34.52,5.16q-40.8,0-63.71-23.79t-22.9-63.79q0-27.11,10.48-47.91A75.36,75.36,0,0,1,1281.75,986q19.85-11.37,47.42-11.37a94.48,94.48,0,0,1,31.38,5,82.09,82.09,0,0,1,24.19,12.91,61.79,61.79,0,0,1,15.16,16.85q5.24,9,5.24,16.7a17.59,17.59,0,0,1-5.88,13.38A20.2,20.2,0,0,1,1385,1045a14.34,14.34,0,0,1-9.11-2.83,44.17,44.17,0,0,1-8.15-9.11q-8.07-12.25-16.85-18.39t-22.34-6.13q-19.52,0-31.45,15.25t-11.94,41.69a80.71,80.71,0,0,0,3.06,22.83,51.86,51.86,0,0,0,8.88,17.74,38,38,0,0,0,14,11.13,42.56,42.56,0,0,0,18.06,3.79q13.23,0,22.67-6.13t16.69-18.71a43.1,43.1,0,0,1,8.71-11.62,16.57,16.57,0,0,1,11.45-4.19,17,17,0,0,1,13.39,6.13Q1407.41,1092.59,1407.4,1099.52Z"/><path class="cls-2" d="M1542.89,1133.87,1504,1070l-23.87,22.58v35q0,12.75-6.7,19.6t-15.4,6.85q-10.15,0-16-6.77t-5.81-20V939.51q0-14.67,5.65-22.34t16.13-7.66q10.15,0,16.13,6.94t6,20.48v106.78l49.52-51.94q9.18-9.67,14-13.22a19.32,19.32,0,0,1,11.77-3.55,19,19,0,0,1,13.71,5.24,17.41,17.41,0,0,1,5.49,13.14q0,9.69-17.91,25.81l-23.39,21.45,45.17,71q5,7.91,7.17,12a16.66,16.66,0,0,1,2.18,7.82q0,10.48-5.72,16.53t-15.09,6q-8.05,0-12.41-4.35T1542.89,1133.87Z"/></g><line class="cls-3" x1="752.28" y1="216.76" x2="752.28" y2="262.33"/><line class="cls-4" x1="956.91" y1="216.76" x2="956.91" y2="262.33"/><line class="cls-5" x1="688.66" y1="225.36" x2="688.66" y2="190.97"/><path class="cls-6" d="M668.38,258.89s-4.87-33.74,28-28.58c0,0,15.23-2.83,13.86,32"/><path class="cls-7" d="M688.66,677.32s25.42-114.93,151.81-138.14"/><path class="cls-8" d="M889.91,541.31s95.37-3.42,153.4,95.88"/><circle class="cls-9" cx="745.71" cy="422.06" r="94.76"/><polygon class="cls-10" points="833.1 516.82 864.52 479.85 901.65 512.21 865.99 571.42 833.1 516.82"/><path class="cls-11" d="M753.14,216.76s127.68-37.39,199.9,0l67.06-21.92L852,142l-163.3,49Z"/><line class="cls-12" x1="1012.79" y1="754.98" x2="1000.69" y2="798.82"/><line class="cls-13" x1="1035.15" y1="798.82" x2="1043.31" y2="754.98"/><line class="cls-14" x1="688.66" y1="751.33" x2="696.4" y2="798.82"/><line class="cls-15" x1="716.17" y1="751.33" x2="725.63" y2="798.82"/><path class="cls-16" d="M739.39,403.33s24.07,4.3,21.49,30.1"/><path class="cls-17" d="M986.14,394.74s25.72,5.64,20.6,27.32"/><path class="cls-18" d="M956.73,379.77a55.24,55.24,0,1,1-19.55,46.41"/><path class="cls-19" d="M651,516.82S622.46,777.33,863.19,780.77s218.68-247.61,218.68-247.61V471"/><line class="cls-20" x1="746.56" y1="750.72" x2="756.58" y2="798.82"/><line class="cls-21" x1="975.19" y1="757.99" x2="965.5" y2="802.26"/><path class="cls-22" d="M698.64,381.58a55.25,55.25,0,1,1-17.22,47.33"/><path class="cls-23" d="M655.13,336.27S619,313.92,632.78,248.58c0,0,29.23,32.67,99.73,20.63,0,0,89.61-10.32,115.31,36.11,0,0,47.18-47.29,114.25-35.68,0,0,98,5.16,107-14.19,0,0,11.6,27.09,0,61.91"/><circle class="cls-24" cx="1000.69" cy="422.06" r="94.76"/></svg>