<svg id="Layer_2" data-name="Layer 2" xmlns="http://www.w3.org/2000/svg" viewBox="0 0 1728 1296"><defs><style>.cls-1{isolation:isolate;}.cls-2{fill:#fff;}.cls-3,.cls-4,.cls-5,.cls-6{fill:none;stroke:#fff;stroke-width:12px;}.cls-3,.cls-4{stroke-miterlimit:10;}.cls-4,.cls-5{stroke-linecap:round;}.cls-5,.cls-6{stroke-linejoin:round;}</style></defs><g class="cls-1"><path class="cls-2" d="M611,548.71q28.56,0,49,11.58a75.06,75.06,0,0,1,31,32.93q10.51,21.35,10.52,50.14a122.59,122.59,0,0,1-5.76,38.69,83.71,83.71,0,0,1-17.28,30.18,75.42,75.42,0,0,1-28.3,19.53q-16.77,6.76-38.43,6.76t-38.57-6.95A76.42,76.42,0,0,1,544.75,712a83.59,83.59,0,0,1-17.22-30.43,122.83,122.83,0,0,1-5.82-38.44,118.63,118.63,0,0,1,6.07-38.81,83.24,83.24,0,0,1,17.59-30,76.11,76.11,0,0,1,28-19Q590,548.71,611,548.71Zm52.84,94.4q0-20.16-6.51-34.93t-18.59-22.35A51.12,51.12,0,0,0,611,578.26a50.1,50.1,0,0,0-20.59,4.19,45.28,45.28,0,0,0-16.28,12.21q-6.83,8-10.77,20.47a92.49,92.49,0,0,0-3.94,28,94.8,94.8,0,0,0,3.94,28.3,57.86,57.86,0,0,0,11.15,21A46.54,46.54,0,0,0,591,704.84a52.25,52.25,0,0,0,46.71-3q12-7.14,19-22T663.82,643.11Z"/><path class="cls-2" d="M762,618.45v4.13q9-11.9,19.72-17.47a52.53,52.53,0,0,1,24.6-5.57,49,49,0,0,1,24.17,5.89,37.41,37.41,0,0,1,15.9,16.65,39.7,39.7,0,0,1,4.38,13.52,139.77,139.77,0,0,1,1,18.53v63.61q0,10.26-4.69,15.53a16.9,16.9,0,0,1-24.61-.13q-4.76-5.39-4.76-15.4v-57q0-16.9-4.69-25.86T794.29,626a27.73,27.73,0,0,0-16.65,5.45,31.32,31.32,0,0,0-11,15q-2.5,7.64-2.51,28.55v42.82q0,10.39-4.82,15.59a16.21,16.21,0,0,1-12.45,5.19,15.48,15.48,0,0,1-12.15-5.38q-4.76-5.39-4.76-15.4V619q0-9.76,4.26-14.59t11.64-4.82a15.77,15.77,0,0,1,8.14,2.13,15.36,15.36,0,0,1,5.83,6.38A22.68,22.68,0,0,1,762,618.45Z"/><path class="cls-2" d="M1044.58,677.42a48.93,48.93,0,0,1-4.32,19,68.34,68.34,0,0,1-13.58,20,69.27,69.27,0,0,1-23.67,16q-14.4,6.14-33.55,6.13A117.61,117.61,0,0,1,943,735.77a74.38,74.38,0,0,1-21.6-8.58,72.59,72.59,0,0,1-17.84-15.34,91,91,0,0,1-12.4-19.34,100.92,100.92,0,0,1-7.7-22.85,124.71,124.71,0,0,1-2.57-25.8q0-22.15,6.45-39.69a84.7,84.7,0,0,1,18.47-30,80.61,80.61,0,0,1,28.17-19,91.27,91.27,0,0,1,34.44-6.51q22.27,0,39.69,8.89t26.67,22q9.26,13.08,9.26,24.73a16.14,16.14,0,0,1-4.5,11.27,14.32,14.32,0,0,1-10.9,4.88q-7.14,0-10.7-3.38t-8-11.64q-7.28-13.65-17.09-20.41t-24.23-6.76q-22.92,0-36.5,17.4t-13.59,49.46q0,21.4,6,35.62t17,21.22q11,7,25.8,7,16,0,27.1-8t16.72-23.35a39.69,39.69,0,0,1,5.88-11.83q3.51-4.58,11.27-4.57a15.81,15.81,0,0,1,11.4,4.63A15.43,15.43,0,0,1,1044.58,677.42Z"/><path class="cls-2" d="M1109.07,569.49V620.2a73.06,73.06,0,0,1,12.71-11.9,45.72,45.72,0,0,1,13.71-6.57,57.42,57.42,0,0,1,16.15-2.19,47.41,47.41,0,0,1,23.1,5.51,42.78,42.78,0,0,1,20.72,29.74,108.65,108.65,0,0,1,1.25,17.46v65.49q0,10.26-4.69,15.53a15.91,15.91,0,0,1-12.46,5.25q-16.9,0-16.9-20.78V660q0-16.41-4.89-25.23T1139.24,626a27.73,27.73,0,0,0-16.46,5.2,31.2,31.2,0,0,0-11,14.21q-2.76,7.64-2.75,27.17v45.2q0,10.14-4.57,15.46t-12.71,5.32q-16.9,0-16.91-20.78V569.49q0-10.4,4.45-15.59t12.46-5.19q8.13,0,12.71,5.25T1109.07,569.49Z"/><path class="cls-2" d="M1325.93,677.42h-66.86a45.48,45.48,0,0,0,4.69,20.54,31.45,31.45,0,0,0,28.86,17.9,41,41,0,0,0,11.21-1.44,36.35,36.35,0,0,0,9.83-4.51,74.1,74.1,0,0,0,8.76-6.57q4-3.51,10.4-9.52,2.63-2.25,7.51-2.25a12.37,12.37,0,0,1,8.51,2.88q3.26,2.88,3.26,8.14,0,4.63-3.63,10.83a42.94,42.94,0,0,1-11,11.89,62.51,62.51,0,0,1-18.4,9.46,79.45,79.45,0,0,1-25.48,3.75q-32.94,0-51.21-18.78t-18.29-51a85.15,85.15,0,0,1,4.51-28.11,62,62,0,0,1,13.15-22.22,56.87,56.87,0,0,1,21.28-14.21,76.35,76.35,0,0,1,28-5q20,0,34.37,8.45T1347,629.59a57.53,57.53,0,0,1,7.13,27.3q0,12.9-7.39,16.71T1325.93,677.42ZM1259.07,658h62q-1.26-17.52-9.46-26.23t-21.6-8.7q-12.77,0-21,8.83T1259.07,658Z"/><path class="cls-2" d="M1505.48,696.2a29.43,29.43,0,0,1-3.82,13.65A47.17,47.17,0,0,1,1490,723.69a60.34,60.34,0,0,1-19.72,10.58,83.8,83.8,0,0,1-26.8,4q-31.68,0-49.46-18.47t-17.78-49.52q0-21,8.14-37.18a58.4,58.4,0,0,1,23.54-25q15.4-8.83,36.81-8.83a73.47,73.47,0,0,1,24.36,3.88,63.84,63.84,0,0,1,18.78,10,48.22,48.22,0,0,1,11.77,13.08c2.71,4.64,4.07,9,4.07,13a13.67,13.67,0,0,1-4.57,10.39,15.68,15.68,0,0,1-11.08,4.26,11.2,11.2,0,0,1-7.08-2.19,34.54,34.54,0,0,1-6.32-7.07q-6.27-9.52-13.09-14.28t-17.34-4.76a29.49,29.49,0,0,0-24.41,11.84q-9.27,11.82-9.27,32.36A62.36,62.36,0,0,0,1413,687.5a40,40,0,0,0,6.89,13.77,29.37,29.37,0,0,0,10.89,8.64,33,33,0,0,0,14,3q10.27,0,17.59-4.76t13-14.53a33.42,33.42,0,0,1,6.77-9,12.82,12.82,0,0,1,8.89-3.26,13.2,13.2,0,0,1,10.39,4.76A15.25,15.25,0,0,1,1505.48,696.2Z"/><path class="cls-2" d="M1610.66,722.87l-30.18-49.58L1562,690.82V718q0,9.88-5.2,15.21a16.23,16.23,0,0,1-12,5.32q-7.89,0-12.4-5.25t-4.51-15.53V572q0-11.4,4.38-17.35t12.53-5.94q7.89,0,12.52,5.38T1562,570v82.89l38.44-40.32a94.14,94.14,0,0,1,10.89-10.26,15,15,0,0,1,9.14-2.76,14.82,14.82,0,0,1,10.65,4.07,13.55,13.55,0,0,1,4.25,10.2q0,7.52-13.9,20l-18.15,16.65,35.06,55.09q3.87,6.13,5.57,9.33a13,13,0,0,1,1.69,6.07q0,8.14-4.44,12.84a15.39,15.39,0,0,1-11.71,4.69q-6.27,0-9.64-3.38T1610.66,722.87Z"/></g><line class="cls-3" x1="162.34" y1="445.39" x2="162.34" y2="480.77"/><line class="cls-3" x1="321.18" y1="445.39" x2="321.18" y2="480.77"/><line class="cls-3" x1="112.95" y1="452.07" x2="112.95" y2="425.37"/><path class="cls-4" d="M97.2,478.1S93.43,451.9,119,455.91c0,0,11.82-2.2,10.76,24.86"/><path class="cls-4" d="M113,802.91s19.73-89.22,117.84-107.24"/><path class="cls-4" d="M269.17,697.33s74-2.66,119.09,74.43"/><circle class="cls-3" cx="157.23" cy="604.76" r="73.56"/><polygon class="cls-5" points="225.07 678.32 249.47 649.62 278.29 674.74 250.6 720.7 225.07 678.32"/><path class="cls-6" d="M163,445.39s99.12-29,155.18,0l52.06-17-130.53-41L113,425.37Z"/><line class="cls-4" x1="364.56" y1="863.19" x2="355.17" y2="897.23"/><line class="cls-4" x1="381.92" y1="897.23" x2="388.26" y2="863.19"/><line class="cls-4" x1="112.95" y1="860.36" x2="118.96" y2="897.23"/><line class="cls-4" x1="134.31" y1="860.36" x2="141.65" y2="897.23"/><path class="cls-4" d="M152.33,590.22S171,593.56,169,613.58"/><path class="cls-4" d="M343.87,583.55s20,4.38,16,21.21"/><path class="cls-4" d="M321,571.93a42.88,42.88,0,1,1-15.17,36"/><path class="cls-4" d="M83.67,678.32S61.56,880.55,248.43,883.22,418.19,691,418.19,691V642.71"/><line class="cls-4" x1="157.9" y1="859.89" x2="165.67" y2="897.23"/><line class="cls-4" x1="335.37" y1="865.53" x2="327.86" y2="899.9"/><path class="cls-4" d="M120.69,573.34a42.88,42.88,0,1,1-13.36,36.74"/><path class="cls-5" d="M86.92,538.16s-28-17.35-17.35-68.07c0,0,22.69,25.36,77.42,16,0,0,69.56-8,89.51,28,0,0,36.63-36.71,88.69-27.7,0,0,76.08,4,83.09-11,0,0,9,21,0,48.05"/><circle class="cls-3" cx="355.17" cy="604.76" r="73.56"/></svg>